<svg width="781" height="193" viewBox="0 0 781 193" fill="none" xmlns="http://www.w3.org/2000/svg">
<path d="M72.229 192.136C50.2616 192.136 32.6876 185.81 19.5071 173.156C6.50237 160.327 0 141.699 0 117.271V75.0936C0 50.6658 6.50237 32.1253 19.5071 19.472C32.6876 6.64301 50.2616 0.228516 72.229 0.228516C94.3722 0.228516 111.946 6.64301 124.951 19.472C138.131 32.1253 144.722 50.6658 144.722 75.0936V117.271C144.722 141.699 138.131 160.327 124.951 173.156C111.946 185.81 94.3722 192.136 72.229 192.136ZM72.229 172.366C88.2213 172.366 100.611 167.621 109.398 158.131C118.185 148.465 122.578 135.109 122.578 118.062V74.3028C122.578 57.2561 118.185 43.9877 109.398 34.4978C100.611 24.8321 88.2213 19.9992 72.229 19.9992C56.4125 19.9992 44.1107 24.8321 35.3237 34.4978C26.5367 43.9877 22.1432 57.2561 22.1432 74.3028V118.062C22.1432 135.109 26.5367 148.465 35.3237 158.131C44.1107 167.621 56.4125 172.366 72.229 172.366Z" fill="white"/>
<path d="M224.669 192.136C208.677 192.136 195.145 188.446 184.073 181.065C173.177 173.684 166.587 161.997 164.302 146.005L184.073 141.523C185.479 149.959 188.115 156.637 191.981 161.558C195.848 166.303 200.592 169.729 206.216 171.838C212.016 173.771 218.166 174.738 224.669 174.738C234.335 174.738 241.979 172.805 247.603 168.939C253.227 165.072 256.038 159.888 256.038 153.386C256.038 146.708 253.314 142.05 247.866 139.414C242.594 136.603 235.301 134.318 225.987 132.561L215.179 130.715C206.919 129.309 199.362 127.113 192.508 124.125C185.655 121.137 180.207 117.095 176.165 111.999C172.123 106.903 170.102 100.488 170.102 92.7555C170.102 81.1566 174.583 72.1061 183.546 65.6037C192.508 59.1013 204.371 55.8501 219.133 55.8501C233.719 55.8501 245.494 59.1892 254.457 65.8673C263.595 72.3697 269.482 81.596 272.119 93.5463L252.611 98.5549C251.03 89.2407 247.251 82.7383 241.276 79.0478C235.301 75.1815 227.92 73.2484 219.133 73.2484C210.346 73.2484 203.404 74.9179 198.308 78.2569C193.211 81.4203 190.663 86.1652 190.663 92.4919C190.663 98.6427 193.036 103.212 197.781 106.2C202.701 109.011 209.204 111.12 217.288 112.526L228.096 114.371C237.234 115.953 245.406 118.15 252.611 120.962C259.992 123.598 265.792 127.464 270.01 132.561C274.403 137.657 276.6 144.335 276.6 152.595C276.6 165.248 271.855 175.002 262.365 181.856C253.051 188.709 240.485 192.136 224.669 192.136Z" fill="white"/>
<path d="M329.424 188.446C322.043 188.446 316.331 186.425 312.289 182.383C308.423 178.341 306.49 172.805 306.49 165.775V77.7297H291.025V59.5407H306.49V13.6726H327.315V59.5407H369.493V77.7297H327.315V162.612C327.315 167.884 329.863 170.52 334.96 170.52H369.493V188.446H329.424Z" fill="white"/>
<path d="M398.929 188.446V59.5407H419.754V188.446H398.929ZM409.474 39.5064C404.904 39.5064 401.038 38.0126 397.875 35.025C394.887 32.0374 393.393 28.259 393.393 23.6898C393.393 18.9448 394.887 15.0785 397.875 12.0909C401.038 9.10337 404.904 7.60958 409.474 7.60958C414.043 7.60958 417.821 9.10337 420.809 12.0909C423.796 15.0785 425.29 18.9448 425.29 23.6898C425.29 28.259 423.796 32.0374 420.809 35.025C417.821 38.0126 414.043 39.5064 409.474 39.5064Z" fill="white"/>
<path d="M498.78 190.818C489.466 190.818 480.855 188.797 472.946 184.755C465.214 180.713 459.063 174.738 454.494 166.83C450.1 158.746 447.904 148.992 447.904 137.569V59.5407H468.729V135.987C468.729 148.816 471.892 158.131 478.219 163.93C484.721 169.729 493.42 172.629 504.316 172.629C516.618 172.629 526.723 168.587 534.631 160.503C542.539 152.419 546.494 140.381 546.494 124.389V59.5407H567.319V188.446H547.021V166.566H543.33C540.518 172.717 535.686 178.341 528.832 183.437C521.978 188.358 511.961 190.818 498.78 190.818Z" fill="white"/>
<path d="M595.957 188.446V59.5407H616.255V75.6208H619.945C622.406 71.0516 626.448 66.8339 632.071 62.9676C637.695 59.1013 645.603 57.1682 655.796 57.1682C665.813 57.1682 673.897 59.3649 680.048 63.7584C686.375 68.1519 690.944 73.512 693.756 79.8386H697.446C700.434 73.512 704.915 68.1519 710.891 63.7584C717.041 59.3649 725.565 57.1682 736.461 57.1682C745.072 57.1682 752.629 58.9256 759.131 62.4404C765.633 65.9552 770.73 71.0516 774.42 77.7297C778.287 84.2321 780.22 92.0525 780.22 101.191V188.446H759.395V103.036C759.395 94.425 756.846 87.659 751.75 82.7383C746.829 77.6419 739.888 75.0936 730.925 75.0936C721.435 75.0936 713.614 78.1691 707.464 84.32C701.488 90.4709 698.501 99.3457 698.501 110.945V188.446H677.676V103.036C677.676 94.425 675.127 87.659 670.031 82.7383C665.11 77.6419 658.169 75.0936 649.206 75.0936C639.716 75.0936 631.896 78.1691 625.745 84.32C619.769 90.4709 616.782 99.3457 616.782 110.945V188.446H595.957Z" fill="white"/>
<path fill-rule="evenodd" clip-rule="evenodd" d="M21.081 155.054L116.859 24.1282L131.043 34.5043L35.2648 165.43L21.081 155.054Z" fill="white"/>
</svg>
